<svg width="64" height="41" viewBox="0 0 64 41" fill="none" xmlns="http://www.w3.org/2000/svg">
<path d="M58.666 5.34313H39.9996V0.00979614H58.666V5.34313ZM63.2687 32.0098C62.09 35.4685 57.858 40.0098 49.6661 40.0098C41.4689 40.0098 34.829 35.3991 34.829 24.8765C34.829 14.4498 41.0289 9.0898 49.4048 9.0898C57.6234 9.0898 62.642 13.8418 63.738 20.8925C63.946 22.2418 64.0286 24.0605 63.9913 26.5991H42.5862C42.9329 35.1618 51.8741 35.4311 54.8207 32.0098H63.2687ZM42.7729 21.3431H56.0127C55.7327 17.2178 52.9834 15.4258 49.4075 15.4258C45.4982 15.4258 43.3355 17.4738 42.7729 21.3431ZM17.2425 39.9778H0V0.0657959H18.5411C33.1436 0.281796 33.421 14.5831 25.7944 18.4818C35.0236 21.8418 35.333 39.9778 17.2425 39.9778ZM7.99991 16.0098H17.5571C24.2451 16.0098 25.3064 8.0098 16.7252 8.0098H7.99991V16.0098ZM17.0425 24.0098H7.99991V32.0525H16.9092C25.0557 32.0525 24.5571 24.0098 17.0425 24.0098Z" fill="#858585"/>
</svg>
