<svg width="58" height="58" viewBox="0 0 58 58" fill="none" xmlns="http://www.w3.org/2000/svg">
<path d="M28.7273 5.18789C36.3975 5.18789 37.3072 5.21661 40.3379 5.35546C48.123 5.70977 51.7594 9.40361 52.1137 17.1313C52.2525 20.1596 52.2788 21.0693 52.2788 28.7395C52.2788 36.412 52.2501 37.3193 52.1137 40.3477C51.757 48.0681 48.1302 51.7692 40.3379 52.1235C37.3072 52.2623 36.4022 52.291 28.7273 52.291C21.0571 52.291 20.1474 52.2623 17.1191 52.1235C9.31482 51.7668 5.69758 48.0562 5.34327 40.3453C5.20442 37.3169 5.1757 36.4096 5.1757 28.7371C5.1757 21.0669 5.20682 20.1596 5.34327 17.1289C5.69997 9.40361 9.32679 5.70737 17.1191 5.35307C20.1498 5.21661 21.0571 5.18789 28.7273 5.18789ZM28.7273 0.00979614C20.9254 0.00979614 19.9487 0.0433113 16.8845 0.18216C6.45167 0.660948 0.653545 6.44949 0.174758 16.8919C0.0335152 19.9585 0 20.9352 0 28.7371C0 36.5389 0.0335152 37.518 0.172364 40.5823C0.651151 51.0151 6.4397 56.8132 16.8821 57.292C19.9487 57.4308 20.9254 57.4643 28.7273 57.4643C36.5291 57.4643 37.5082 57.4308 40.5725 57.292C50.9957 56.8132 56.8082 51.0246 57.2798 40.5823C57.421 37.518 57.4545 36.5389 57.4545 28.7371C57.4545 20.9352 57.421 19.9585 57.2822 16.8942C56.813 6.47104 51.0172 0.663342 40.5749 0.184554C37.5082 0.0433113 36.5291 0.00979614 28.7273 0.00979614ZM28.7273 13.9856C20.5807 13.9856 13.9758 20.5905 13.9758 28.7371C13.9758 36.8836 20.5807 43.4909 28.7273 43.4909C36.8738 43.4909 43.4787 36.886 43.4787 28.7371C43.4787 20.5905 36.8738 13.9856 28.7273 13.9856ZM28.7273 38.3128C23.4391 38.3128 19.1515 34.0277 19.1515 28.7371C19.1515 23.4489 23.4391 19.1613 28.7273 19.1613C34.0155 19.1613 38.303 23.4489 38.303 28.7371C38.303 34.0277 34.0155 38.3128 28.7273 38.3128ZM44.0628 9.95661C42.1573 9.95661 40.6132 11.5007 40.6132 13.4039C40.6132 15.3071 42.1573 16.8512 44.0628 16.8512C45.966 16.8512 47.5077 15.3071 47.5077 13.4039C47.5077 11.5007 45.966 9.95661 44.0628 9.95661Z" fill="#858585"/>
</svg>
