<svg width="58" height="48" viewBox="0 0 58 48" fill="none" xmlns="http://www.w3.org/2000/svg">
<path d="M57.4545 6.06078C55.3407 7.01089 53.0688 7.65076 50.6845 7.93919C53.1191 6.46312 54.9888 4.12421 55.8674 1.3369C53.5907 2.7039 51.0675 3.69763 48.3815 4.23328C46.2341 1.91376 43.1675 0.464355 39.7777 0.464355C32.1674 0.464355 26.5751 7.65318 28.294 15.1159C18.5004 14.619 9.81515 9.86849 4.00027 2.64815C0.912091 8.0119 2.39873 15.0286 7.64624 18.5819C5.71673 18.5188 3.89733 17.9832 2.31015 17.0888C2.18088 22.6174 6.09497 27.7897 11.7638 28.9409C10.1048 29.3966 8.28782 29.5032 6.4397 29.1445C7.9383 33.8854 12.2905 37.3344 17.4518 37.4313C12.4964 41.3651 6.25297 43.1223 0 42.3758C5.21639 45.7617 11.4143 47.7371 18.0695 47.7371C39.9548 47.7371 52.3195 29.0233 51.5726 12.2389C53.8756 10.5544 55.8745 8.45302 57.4545 6.06078Z" fill="#858585"/>
</svg>
